<mxfile host="app.diagrams.net" modified="2023-10-29T03:34:32.580Z" agent="Mozilla/5.0 (Windows NT 10.0; Win64; x64) AppleWebKit/537.36 (KHTML, like Gecko) Chrome/118.0.0.0 Safari/537.36" version="22.0.8" etag="UU9dPIYD87Mbt_wlKMCH" type="github">
  <diagram name="Trang-1" id="253cPfgdgNlQCDIb1IlE">
    <mxGraphModel>
      <root>
        <mxCell id="0" />
        <mxCell id="1" parent="0" />
      </root>
    </mxGraphModel>
  </diagram>
</mxfile>
